HIERARCHY
ROOT hip
{
	OFFSET 0.000000 0.000000 0.000000 
	CHANNELS 6 Xposition Yposition Zposition Xrotation Zrotation Yrotation
	JOINT abdomen
	{
		OFFSET 0.000000 3.402643 0.000000 
		CHANNELS 3 Xrotation Zrotation Yrotation
		JOINT chest
		{
			OFFSET 0.000000 8.438565 -0.680529 
			CHANNELS 3 Xrotation Zrotation Yrotation
			JOINT neck
			{
				OFFSET 0.000000 10.207942 -0.272212 
				CHANNELS 3 Xrotation Zrotation Yrotation
				JOINT head
				{
					OFFSET 0.000000 3.130431 0.000000 
					CHANNELS 3 Xrotation Zrotation Yrotation
					End Site
					{
						OFFSET 0.000000 3.130435 0.000000 
					}
				}
			}
			JOINT lCollar
			{
				OFFSET 3.470700 6.669187 -0.816635 
				CHANNELS 3 Yrotation Zrotation Xrotation
				JOINT lShldr
				{
					OFFSET 3.198488 0.000000 0.000000 
					CHANNELS 3 Zrotation Yrotation Xrotation
					JOINT lForeArm
					{
						OFFSET 10.139888 0.000000 0.000000 
						CHANNELS 3 Yrotation Zrotation Xrotation
						JOINT lHand
						{
							OFFSET 8.370511 0.000000 0.000000 
							CHANNELS 3 Zrotation Yrotation Xrotation
							End Site
							{
								OFFSET 4.083176 0.000000 0.000000 
							}
						}
					}
				}
			}
			JOINT rCollar
			{
				OFFSET -3.470700 6.669187 -0.816635 
				CHANNELS 3 Yrotation Zrotation Xrotation
				JOINT rShldr
				{
					OFFSET -3.198488 0.000000 0.000000 
					CHANNELS 3 Zrotation Yrotation Xrotation
					JOINT rForeArm
					{
						OFFSET -10.139888 0.000000 0.000000 
						CHANNELS 3 Yrotation Zrotation Xrotation
						JOINT rHand
						{
							OFFSET -8.370511 0.000000 0.000000 
							CHANNELS 3 Zrotation Yrotation Xrotation
							End Site
							{
								OFFSET -4.083176 0.000000 0.000000 
							}
						}
					}
				}
			}
		}
	}
	JOINT lThigh
	{
		OFFSET 5.308129 -1.633274 1.361059 
		CHANNELS 3 Xrotation Zrotation Yrotation
		JOINT lShin
		{
			OFFSET -2.041588 -20.007561 0.000000 
			CHANNELS 3 Xrotation Zrotation Yrotation
			JOINT lFoot
			{
				OFFSET 0.000000 -19.190928 -1.224953 
				CHANNELS 3 Xrotation Yrotation Zrotation
				End Site
				{
					OFFSET 0.000000 -2.449906 4.627600 
				}
			}
		}
	}
	JOINT rThigh
	{
		OFFSET -5.308129 -1.633274 1.361059 
		CHANNELS 3 Xrotation Zrotation Yrotation
		JOINT rShin
		{
			OFFSET 2.041588 -20.007561 0.000000 
			CHANNELS 3 Xrotation Zrotation Yrotation
			JOINT rFoot
			{
				OFFSET 0.000000 -19.190928 -1.224953 
				CHANNELS 3 Xrotation Yrotation Zrotation
				End Site
				{
					OFFSET 0.000000 -2.449906 4.627600 
				}
			}
		}
	}
}
MOTION
Frames: 6
Frame Time: 0.016667
-56.308414 28.638168 37.547981 -36.570320 2.782418 11.742936 48.887749 -2.196900 -1.046026 -0.558306 12.910172 2.264670 -3.216123 -6.165016 -15.836504 -6.492058 6.875520 -17.531549 -7.989489 -7.117783 -0.009596 -67.831261 -16.251621 22.803108 -77.121216 4.750737 71.102150 0.262877 17.285028 0.069019 15.097554 -0.627544 -0.009428 56.799156 1.717668 11.768281 83.493927 -4.619825 66.634041 -5.890256 3.457253 -0.366161 -48.509243 19.010702 3.168633 73.415154 1.399210 -4.134414 19.417482 -14.906750 -7.338818 -44.851692 -17.577412 -9.425464 78.168732 -1.796712 4.157609 10.453193 4.283250 11.421325 
-56.309669 28.637705 37.549294 -36.580082 2.782418 11.742936 48.876881 -2.177385 -1.026134 -0.554229 12.900241 2.285887 -3.143216 -5.979987 -15.733221 -6.372766 6.806477 -17.381565 -8.009014 -7.078718 -0.009597 -67.843842 -16.289619 22.833643 -77.088226 4.756332 71.165398 0.242410 17.275282 0.063176 15.078023 -0.617775 -0.009429 56.805393 1.699701 11.743949 83.512009 -4.617867 66.636719 -5.939110 3.447227 -0.368097 -48.501755 19.031500 3.171866 73.425362 1.389864 -4.131890 19.400412 -14.927619 -7.336300 -44.851692 -17.577417 -9.425463 78.178932 -1.786830 4.156108 10.436734 4.282412 11.442700 
-56.310917 28.637241 37.550606 -36.591366 2.772759 11.752687 48.875427 -2.157877 -0.996858 -0.540393 12.890307 2.304925 -3.079397 -5.794754 -15.629090 -6.255007 6.736913 -17.241291 -8.028540 -7.049418 -0.009597 -67.854805 -16.323950 22.852545 -77.055237 4.761998 71.229431 0.211720 17.265549 0.054440 15.048729 -0.608004 -0.009430 56.803181 1.689050 11.727729 83.530556 -4.614818 66.629692 -5.997808 3.446849 -0.371620 -48.500713 19.040565 3.148842 73.435120 1.389505 -4.132527 19.367556 -14.970774 -7.319577 -44.830639 -17.576452 -9.427327 78.169968 -1.777161 4.144145 10.438653 4.285340 11.423393 
-56.310917 28.637241 37.550606 -36.591366 2.772759 11.752687 48.875427 -2.157877 -0.996858 -0.507243 12.929252 2.316629 -3.093782 -5.695346 -15.479478 -6.204283 6.677927 -17.062269 -8.009009 -7.059186 -0.009597 -67.866829 -16.383680 22.882242 -77.048988 4.762417 71.318443 0.221936 17.255774 0.057302 15.078018 -0.647072 -0.009429 56.780731 1.677033 11.702824 83.566238 -4.611989 66.644714 -5.978117 3.427550 -0.368416 -48.500713 19.040565 3.148842 73.435120 1.389505 -4.132527 19.367556 -14.970774 -7.319577 -44.819424 -17.575544 -9.437791 78.160210 -1.777173 4.143787 10.462346 4.269746 11.427105 
-56.310932 28.637224 37.550629 -36.591366 2.772759 11.752687 48.874889 -2.148119 -0.987099 -0.476327 12.968282 2.316634 -3.105038 -5.605170 -15.329899 -6.166572 6.628097 -16.883259 -7.979715 -7.068956 -0.009598 -67.878319 -16.430698 22.906569 -77.052048 4.765960 71.409073 0.245421 17.255711 0.075318 15.097657 -0.683594 0.000116 56.757183 1.659667 11.669539 83.601837 -4.618849 66.657860 -5.968271 3.417900 -0.366819 -48.500713 19.040565 3.148842 73.435120 1.389505 -4.132527 19.367554 -14.970774 -7.319577 -44.820709 -17.566448 -9.460554 78.149651 -1.786857 4.155045 10.451223 4.250575 11.432565 
-56.314247 28.633213 37.555912 -36.624176 2.753539 11.761970 48.902962 -2.118839 -0.967580 -0.452707 12.958346 2.335666 -3.179633 -5.420324 -15.187267 -6.187495 6.419415 -16.689053 -7.979713 -7.059191 -0.009598 -67.869995 -16.459906 22.914589 -77.050774 4.760767 71.429436 0.221977 17.294836 0.057450 15.087780 -0.676370 -0.009428 56.766285 1.682197 11.653773 83.610451 -4.614091 66.669418 -5.899914 3.437763 -0.364746 -48.499275 19.079151 3.133402 73.464478 1.380124 -4.140396 19.368696 -14.986592 -7.313042 -44.794415 -17.548698 -9.470590 78.169533 -1.786864 4.146145 10.447974 4.224812 11.426095 
